<svg viewBox="55.28 67.49 101.62331707317072 77.02656" xmlns="http://www.w3.org/2000/svg" id="svg5" version="1.1" style="max-height: 500px" width="101.62331707317072" height="77.02656">
  <defs>
    <linearGradient id="linearGradient13268">
      <stop offset="0" style="stop-color:#eaeaea;stop-opacity:1;"/>
    </linearGradient>
  </defs>
  <g transform="scale(-1,1) translate(-210.69,0)"> 
    <circle r="49.950783" cy="140.36922" cx="104.84738" style="fill:#008000;stroke:#1e1a1a;stroke-width:0.6;stroke-linejoin:bevel;"/>
    <ellipse ry="12.686368" rx="11.302401" cy="122.94245" cx="130.32359" style="fill:#ffffff;stroke:#1e1a1a;stroke-width:0.6;"/>
    <ellipse ry="12.686368" rx="11.302401" cy="125.47973" cx="102.4136" style="fill:#ffffff;stroke:#1e1a1a;stroke-width:0.6;"/>
    <path d="m 135.29273,148.41464 c -4.41659,1.4602 -9.07107,1.57648 -16.05635,2.47412 -10.80109,1.38798 -13.75474,1.62222 -15.70254,3.85011 -2.5424,2.90799 -4.305824,6.768 -2.52151,9.20747 1.55524,2.12628 3.65572,3.33748 7.22763,3.33748 3.57191,0 9.72606,-1.99618 14.67851,-1.90143 5.58164,0.10679 11.22154,-2.61686 15.61774,-3.71591 4.63695,-3.18801 3.41254,-4.47987 3.63809,-7.42886 -1.13681,-4.02316 -2.2876,-6.70648 -6.88157,-5.82298 z" style="fill:#901600;stroke:#000000;stroke-width:0.6;"/>
    <ellipse ry="6.5738606" rx="6.8085122" cy="127.01723" cx="106.83224" style="fill:#000000;stroke:#1e1a1a;stroke-width:0.0927953;"/>
    <ellipse ry="6.5738606" rx="6.8085122" cy="125.60141" cx="134.44757" style="fill:#000000;stroke:#1e1a1a;stroke-width:0.0927953;"/>
    <path d="M 100.37154,92.233873 C 97.647491,84.288875 95.823232,81.090308 91.734907,77.055401 86.882916,72.2668 83.678897,71.484802 74.577282,69.069449 c 1.391845,7.292892 4.158537,11.10189 8.582666,15.107639 3.136677,2.840053 6.088521,4.986431 17.211592,8.056785 z" style="fill:#008000;stroke:#000000;stroke-width:0.623157;"/>
  </g>
</svg>